<?xml version="1.0" standalone="no"?>
<!DOCTYPE svg PUBLIC "-//W3C//DTD SVG 20010904//EN"
 "http://www.w3.org/TR/2001/REC-SVG-20010904/DTD/svg10.dtd">
<svg version="1.0" xmlns="http://www.w3.org/2000/svg"
 width="512.000000pt" height="512.000000pt" viewBox="0 0 512.000000 512.000000"
 preserveAspectRatio="xMidYMid meet">
<metadata>
Created by potrace 1.16, written by Peter Selinger 2001-2019
</metadata>
<g transform="translate(0.000000,512.000000) scale(0.100000,-0.100000)"
fill="#0ad" stroke="#079" stroke-width="10">
<path  d="M2300 4679 c-226 -29 -469 -104 -680 -209 -355 -178 -646 -443 -853
-778 -222 -358 -327 -726 -327 -1142 0 -268 44 -508 132 -723 64 -159 243
-496 298 -565 173 -213 738 -575 1070 -686 296 -98 583 -127 895 -91 227 27
329 55 478 133 229 119 420 247 540 360 56 54 73 92 41 92 -9 0 -59 -41 -112
-91 -131 -124 -380 -284 -581 -373 -209 -93 -694 -123 -991 -61 -221 46 -486
149 -674 262 -307 185 -513 351 -625 502 -67 90 -260 485 -305 622 -74 227
-101 429 -93 684 11 353 89 632 269 972 239 452 727 829 1253 969 153 41 341
64 517 64 351 0 648 -77 923 -240 120 -71 195 -91 195 -51 0 47 -271 194 -485
265 -136 44 -220 64 -355 82 -114 15 -423 17 -530 3z"/>
<path  d="M2513 4563 c26 -2 67 -2 90 0 23 2 2 3 -48 3 -49 0 -68 -1 -42 -3z"/>
<path d="M2358 4553 c12 -2 32 -2 45 0 12 2 2 4 -23 4 -25 0 -35 -2 -22 -4z"/>
<path d="M2698 4553 c12 -2 32 -2 45 0 12 2 2 4 -23 4 -25 0 -35 -2 -22 -4z"/>
<path d="M2273 4543 c9 -2 25 -2 35 0 9 3 1 5 -18 5 -19 0 -27 -2 -17 -5z"/>
<path d="M2815 4539 c51 -10 92 -10 50 1 -16 4 -43 8 -60 8 -25 0 -24 -2 10
-9z"/>
<path d="M2208 4533 c6 -2 18 -2 25 0 6 3 1 5 -13 5 -14 0 -19 -2 -12 -5z"/>
<path d="M2158 4523 c6 -2 18 -2 25 0 6 3 1 5 -13 5 -14 0 -19 -2 -12 -5z"/>
<path d="M2908 4523 c6 -2 18 -2 25 0 6 3 1 5 -13 5 -14 0 -19 -2 -12 -5z"/>
<path d="M2108 4513 c6 -2 18 -2 25 0 6 3 1 5 -13 5 -14 0 -19 -2 -12 -5z"/>
<path d="M2958 4513 c7 -3 16 -2 19 1 4 3 -2 6 -13 5 -11 0 -14 -3 -6 -6z"/>
<path d="M2068 4503 c7 -3 16 -2 19 1 4 3 -2 6 -13 5 -11 0 -14 -3 -6 -6z"/>
<path d="M3010 4500 c34 -11 60 -11 35 0 -11 5 -29 8 -40 8 -16 0 -15 -2 5 -8z"/>
<path d="M2028 4493 c7 -3 16 -2 19 1 4 3 -2 6 -13 5 -11 0 -14 -3 -6 -6z"/>
<path d="M1988 4483 c7 -3 16 -2 19 1 4 3 -2 6 -13 5 -11 0 -14 -3 -6 -6z"/>
<path d="M2327 4465 c-385 -49 -748 -199 -1013 -420 -245 -205 -422 -424 -539
-667 -184 -384 -229 -787 -139 -1238 35 -174 57 -232 175 -452 191 -360 229
-417 359 -532 155 -138 496 -337 739 -431 391 -151 820 -164 1209 -36 178 58
502 227 502 261 0 11 43 52 112 106 127 100 320 283 299 284 -7 0 -48 -34 -91
-75 -42 -42 -135 -124 -206 -183 -92 -77 -128 -113 -127 -127 1 -16 -32 -37
-185 -113 -103 -51 -221 -105 -262 -121 -207 -79 -524 -123 -727 -102 -291 30
-546 116 -853 287 -333 186 -472 297 -576 459 -72 114 -288 522 -311 588 -61
182 -100 484 -89 692 6 115 28 281 46 355 29 117 32 126 41 105 6 -14 7 -10 3
15 -4 28 -3 32 6 20 9 -12 10 -9 5 13 -3 17 -2 26 4 23 5 -4 13 8 17 26 10 49
70 182 122 273 156 271 447 560 724 719 471 271 1057 338 1524 175 194 -67
441 -206 613 -344 228 -182 382 -372 511 -633 50 -101 130 -291 130 -308 0 -3
-16 -4 -36 -2 -35 3 -35 4 -64 90 -49 144 -177 377 -200 363 -6 -4 -9 -3 -8 2
4 13 -93 134 -181 226 -268 281 -615 479 -964 549 -97 20 -141 23 -332 22
-199 0 -232 -3 -345 -27 -161 -34 -333 -93 -471 -162 -114 -58 -238 -133 -276
-168 -13 -11 -25 -18 -28 -15 -3 2 24 28 60 57 86 70 97 89 14 26 -35 -28
-143 -129 -240 -225 -428 -428 -562 -712 -585 -1252 -9 -204 26 -507 72 -617
13 -31 16 -33 51 -28 57 10 59 16 35 119 -29 130 -46 337 -39 506 4 105 2 142
-7 139 -8 -3 -11 -61 -11 -198 0 -192 13 -334 41 -458 16 -68 12 -80 -28 -81
-32 0 -71 176 -88 396 -17 212 11 511 65 699 119 412 517 851 983 1085 193 97
389 155 607 181 135 16 412 6 531 -20 385 -81 760 -318 1047 -661 61 -74 95
-127 148 -235 38 -77 69 -135 69 -130 0 6 -27 66 -60 135 -33 69 -51 114 -39
100 44 -52 179 -352 179 -396 -1 -16 -3 -15 -15 6 -8 14 -14 21 -15 17 -1 -22
36 -66 67 -81 66 -32 114 -14 88 33 -8 14 -31 71 -51 126 -50 137 -161 351
-242 465 -37 52 -119 147 -182 211 -294 297 -677 505 -1060 575 -120 21 -380
26 -513 9z m-887 -508 c0 -2 -15 -16 -32 -33 l-33 -29 29 33 c28 30 36 37 36
29z m-80 -71 c0 -2 -8 -10 -17 -17 -16 -13 -17 -12 -4 4 13 16 21 21 21 13z"/>
<path d="M3131 4466 c8 -8 113 -45 117 -42 2 2 -22 13 -53 25 -54 20 -73 25
-64 17z"/>
<path d="M1790 4420 c-8 -5 -10 -10 -5 -10 6 0 17 5 25 10 8 5 11 10 5 10 -5
0 -17 -5 -25 -10z"/>
<path d="M1740 4400 c-8 -5 -10 -10 -5 -10 6 0 17 5 25 10 8 5 11 10 5 10 -5
0 -17 -5 -25 -10z"/>
<path d="M1610 4339 c-212 -114 -400 -256 -545 -412 -80 -86 -220 -265 -213
-272 2 -3 33 34 68 82 84 112 260 295 369 382 107 85 196 143 331 215 58 31
101 56 95 56 -5 0 -53 -23 -105 -51z"/>
<path d="M2488 4383 c6 -2 18 -2 25 0 6 3 1 5 -13 5 -14 0 -19 -2 -12 -5z"/>
<path d="M2880 4381 c0 -6 -15 -12 -32 -14 l-33 -4 31 -1 c18 -1 37 5 44 13 9
10 9 15 1 15 -6 0 -11 -4 -11 -9z"/>
<path d="M3321 4386 c10 -9 69 -36 69 -32 0 6 -55 36 -66 36 -4 0 -5 -2 -3 -4z"/>
<path d="M2373 4373 c15 -2 37 -2 50 0 12 2 0 4 -28 4 -27 0 -38 -2 -22 -4z"/>
<path d="M2738 4373 c12 -2 32 -2 45 0 12 2 2 4 -23 4 -25 0 -35 -2 -22 -4z"/>
<path d="M2230 4358 c-81 -17 -201 -50 -197 -55 2 -2 38 5 78 16 41 12 110 27
154 35 44 8 64 14 45 14 -19 0 -55 -4 -80 -10z"/>
<path d="M3405 4343 c6 -6 28 -20 50 -32 22 -13 31 -15 20 -6 -22 18 -86 53
-70 38z"/>
<path d="M3730 4322 c108 -74 370 -315 357 -328 -3 -3 -41 25 -85 63 -80 69
-249 189 -257 182 -2 -2 -5 -22 -7 -43 l-3 -40 75 -42 c46 -26 123 -87 198
-156 196 -179 285 -289 370 -455 71 -139 90 -191 101 -282 6 -45 24 -120 41
-168 50 -140 72 -289 77 -523 6 -223 -6 -343 -52 -535 -61 -255 -196 -514
-377 -724 -66 -77 -142 -147 -194 -177 -15 -9 -16 -15 -7 -24 24 -25 68 1 164
98 221 224 393 515 463 784 93 360 83 804 -26 1118 -24 71 -43 146 -48 195 -9
93 -21 127 -84 253 -79 157 -187 311 -285 406 -27 27 -48 53 -45 58 14 22
-357 360 -392 357 -5 0 2 -8 16 -17z"/>
<path d="M1915 4264 c-105 -41 -251 -116 -291 -150 -19 -16 -10 -13 26 9 81
50 172 95 275 134 49 19 92 37 94 39 11 10 -21 0 -104 -32z"/>
<path d="M3530 4267 c0 -3 29 -26 65 -52 36 -25 92 -71 125 -102 33 -30 60
-51 59 -47 -1 18 -249 217 -249 201z"/>
<path d="M2410 4243 c-304 -30 -617 -143 -844 -304 -104 -74 -292 -252 -377
-356 -82 -100 -160 -214 -153 -225 3 -5 21 16 40 47 77 128 282 354 424 468
191 152 424 260 696 323 102 23 147 28 314 32 254 5 359 -11 653 -102 26 -9
45 -11 42 -6 -8 13 -206 75 -301 94 -156 31 -356 43 -494 29z"/>
<path d="M2325 4106 c-372 -61 -654 -220 -963 -541 -238 -246 -335 -436 -388
-760 -45 -272 -3 -701 96 -998 67 -200 202 -402 404 -603 132 -132 193 -174
373 -254 164 -73 308 -115 493 -144 33 -5 34 -5 16 9 -11 8 -32 15 -46 15 -48
0 -227 50 -342 95 -209 83 -339 172 -498 344 -175 188 -304 379 -371 551 -44
111 -92 332 -83 379 4 17 1 95 -5 174 -26 311 32 625 160 864 193 359 532 650
918 787 103 37 293 66 431 66 390 0 747 -152 1069 -456 56 -53 105 -94 108
-91 8 9 -139 158 -215 219 -35 28 -61 53 -58 55 8 8 129 -67 199 -124 218
-179 407 -505 486 -842 83 -348 28 -721 -159 -1096 -84 -168 -142 -248 -272
-377 -54 -54 -98 -100 -98 -103 0 -26 57 20 195 159 150 152 166 172 212 263
78 153 151 371 190 568 25 128 24 407 -1 530 -44 213 -172 511 -285 663 -76
103 -202 228 -295 294 -79 56 -180 108 -211 108 -11 0 -45 19 -75 41 -109 82
-278 154 -445 191 -117 25 -422 34 -540 14z"/>
<path d="M3260 4076 c0 -3 44 -28 99 -56 206 -108 428 -302 563 -491 66 -92
173 -289 218 -401 13 -32 25 -56 27 -54 6 6 -60 163 -108 257 -117 234 -288
432 -508 589 -130 93 -291 179 -291 156z"/>
<path d="M2107 4005 c-158 -56 -373 -175 -489 -271 -108 -91 -150 -135 -144
-150 5 -13 15 -8 54 28 187 173 393 298 610 368 62 20 109 39 106 43 -13 13
-69 6 -137 -18z"/>
<path d="M3935 3940 c27 -27 51 -50 54 -50 3 0 -17 23 -44 50 -27 28 -51 50
-54 50 -3 0 17 -22 44 -50z"/>
<path d="M2384 3948 c-5 -9 -36 -21 -69 -28 -325 -64 -652 -272 -887 -564 -48
-60 -89 -113 -91 -119 -2 -6 -16 -3 -35 7 -30 16 -33 15 -53 -5 -11 -11 -32
-44 -45 -72 -23 -51 -23 -52 -4 -61 25 -11 26 -8 -9 -113 -52 -156 -65 -240
-65 -438 -1 -160 17 -365 31 -351 3 2 -1 40 -8 83 -21 128 -16 408 10 530 26
123 66 241 92 268 10 11 48 65 85 120 91 137 189 251 297 346 295 258 594 379
938 379 229 0 393 -40 602 -147 143 -73 281 -177 414 -311 58 -59 96 -91 83
-72 -13 19 -63 73 -110 120 -209 208 -458 347 -739 411 -120 28 -424 39 -437
17z"/>
<path d="M1219 3813 c-41 -43 -86 -91 -99 -108 l-24 -30 25 25 c56 56 182 190
178 190 -2 0 -38 -35 -80 -77z"/>
<path d="M4038 3825 c108 -131 231 -338 321 -544 30 -67 56 -120 58 -118 2 3
-21 60 -51 127 -98 220 -229 436 -327 540 l-51 55 50 -60z"/>
<path d="M2434 3790 c-304 -31 -587 -177 -820 -423 -183 -191 -279 -366 -341
-614 -24 -95 -27 -128 -27 -273 -1 -137 3 -183 23 -270 61 -275 184 -494 386
-688 93 -89 113 -103 252 -174 83 -43 175 -87 203 -98 88 -35 233 -69 342 -80
125 -13 278 -4 278 16 0 11 -29 14 -142 14 -158 0 -267 18 -398 66 -103 36
-260 117 -345 175 -82 57 -175 138 -158 139 7 0 28 -14 47 -31 84 -73 296
-184 463 -243 390 -135 843 -59 1193 202 79 59 206 182 254 245 53 69 16 52
-72 -35 -116 -113 -218 -198 -240 -198 -12 1 -5 11 23 33 84 68 195 168 195
177 0 28 -28 14 -88 -41 -101 -95 -265 -212 -366 -263 -99 -50 -190 -74 -393
-106 -121 -20 -134 -20 -149 -6 -9 10 -33 16 -58 16 -65 0 -239 38 -351 77
-128 44 -305 141 -403 219 -122 98 -240 255 -306 409 -109 253 -133 555 -65
808 9 34 14 38 34 35 22 -5 27 2 55 73 70 172 239 386 402 509 214 162 528
251 774 221 332 -41 677 -269 893 -589 64 -95 139 -258 158 -342 24 -112 22
-328 -5 -450 -11 -52 -24 -105 -28 -118 -11 -39 13 -24 30 18 52 130 64 404
27 589 -23 110 -23 115 -5 128 10 7 21 13 25 13 20 0 43 -154 47 -312 5 -191
-7 -267 -65 -432 -49 -143 -49 -140 -17 -155 32 -14 34 -12 65 69 35 91 67
232 79 345 25 231 -36 484 -177 727 -39 67 -48 77 -67 72 -19 -4 -32 7 -80 70
-142 185 -369 352 -581 429 -111 39 -351 62 -501 47z m213 -51 c99 -11 260
-52 278 -71 11 -12 14 -12 -115 24 -118 32 -362 37 -500 8 -277 -56 -499 -194
-692 -428 -65 -79 -152 -212 -182 -280 -18 -39 -36 -55 -36 -32 0 15 43 99 91
177 83 135 226 290 356 385 136 100 336 184 493 207 157 23 184 24 307 10z
m481 -148 c175 -105 315 -242 411 -403 41 -69 7 -39 -46 40 -92 137 -227 261
-394 362 -46 27 -77 50 -68 50 9 0 52 -22 97 -49z m-1773 -1456 c51 -171 142
-332 259 -462 65 -71 75 -95 15 -38 -54 53 -149 185 -198 276 -42 78 -105 256
-115 324 -6 47 -1 33 39 -100z"/>
<path d="M2405 3619 c-170 -25 -368 -107 -506 -211 -91 -69 -231 -214 -301
-313 -88 -124 -154 -274 -183 -415 -23 -114 -16 -349 14 -463 110 -414 457
-715 949 -823 101 -22 288 -22 405 0 219 42 432 154 594 314 69 67 163 181
163 197 0 18 -26 -5 -89 -79 -159 -189 -382 -327 -628 -388 -128 -32 -363 -32
-480 0 -241 65 -430 165 -579 305 -231 216 -368 558 -336 837 20 168 75 342
149 470 45 77 214 251 323 331 41 31 109 74 150 97 126 69 340 130 462 133 29
1 67 5 83 9 43 11 -113 10 -190 -1z"/>
<path d="M2665 3549 c165 -34 305 -97 433 -195 41 -30 76 -53 79 -51 7 8 -125
110 -192 148 -118 68 -279 120 -367 118 -36 -1 -29 -4 47 -20z"/>
<path d="M2396 3529 c-82 -11 -222 -56 -308 -100 -213 -107 -375 -282 -461
-496 -56 -140 -71 -225 -70 -398 0 -129 4 -164 27 -250 14 -55 46 -139 70
-187 24 -49 39 -88 34 -88 -24 0 -16 -36 22 -94 49 -76 180 -205 269 -265 87
-59 233 -127 327 -152 102 -27 326 -37 428 -19 152 27 317 97 443 187 78 55
253 224 253 244 0 8 6 24 14 34 11 16 17 17 29 7 13 -11 19 -8 37 17 30 43 86
168 100 223 13 51 2 88 -26 88 -12 0 -11 -4 6 -18 l23 -18 -18 -55 c-18 -54
-79 -183 -97 -206 -7 -9 -16 -10 -28 -3 -15 8 -22 4 -40 -25 -12 -19 -19 -39
-15 -45 3 -5 3 -10 -2 -10 -4 0 -52 -43 -105 -95 -196 -191 -425 -299 -678
-319 -214 -18 -483 65 -670 204 -109 81 -279 267 -265 290 2 4 18 10 35 13 33
7 41 27 12 27 -27 0 -47 26 -83 105 -77 170 -107 402 -75 583 67 386 306 656
686 777 102 33 282 45 382 26 246 -47 529 -208 654 -374 62 -82 148 -261 175
-367 60 -237 20 -530 -102 -737 -42 -70 -173 -205 -254 -260 -120 -81 -261
-140 -389 -162 -85 -16 -263 -13 -343 4 -196 41 -375 138 -513 276 -40 41 -64
61 -53 44 67 -95 231 -217 368 -274 146 -61 214 -74 385 -74 140 0 164 2 245
27 185 56 316 134 451 270 78 79 98 106 143 196 77 157 104 270 105 450 1 175
-20 270 -94 426 -68 145 -116 210 -216 294 -247 208 -559 315 -818 279z"/>
<path d="M2380 3385 c-308 -65 -559 -305 -651 -620 -33 -113 -34 -325 -2 -435
21 -73 79 -203 110 -248 15 -21 15 -22 -3 -15 -15 5 -13 0 9 -27 16 -18 40
-42 53 -53 14 -11 23 -26 20 -34 -4 -8 -1 -11 5 -7 6 3 21 -4 35 -17 22 -21
23 -24 8 -40 -33 -36 13 -77 47 -43 19 19 18 21 -41 87 -195 220 -283 469
-250 706 48 346 292 632 617 723 108 30 276 30 387 -1 192 -51 386 -194 505
-370 88 -129 129 -250 141 -416 l7 -100 2 94 c1 111 -17 194 -64 298 -106 230
-309 414 -546 494 -79 27 -112 32 -209 35 -73 2 -139 -2 -180 -11z"/>
<path d="M2352 3320 c-202 -53 -392 -208 -482 -395 -166 -341 -97 -710 184
-990 103 -102 187 -151 321 -185 154 -39 357 -22 501 44 160 74 326 231 403
383 26 52 26 59 1 66 -11 3 -20 13 -20 24 0 10 -14 -6 -30 -36 -112 -203 -298
-352 -510 -407 -87 -23 -253 -23 -340 0 -115 31 -284 135 -266 164 18 29 75
-1 63 -32 -8 -20 73 -71 165 -104 65 -24 87 -27 208 -27 120 0 143 3 210 27
130 46 207 95 310 198 75 74 105 113 138 178 24 45 49 82 57 82 35 0 56 250
32 366 -46 217 -187 423 -373 544 -127 83 -254 120 -409 119 -55 0 -118 -7
-163 -19z m343 -76 c85 -20 214 -86 273 -139 54 -49 128 -142 119 -151 -3 -3
-18 14 -35 38 -65 95 -177 176 -298 217 -85 28 -176 42 -192 28 -15 -12 -38 5
-28 22 8 12 71 6 161 -15z m1 -100 c96 -25 212 -92 284 -164 110 -110 168
-244 177 -405 10 -193 -22 -304 -118 -410 -130 -141 -293 -215 -476 -215 -274
0 -461 154 -534 440 -42 161 -26 332 44 465 37 70 143 181 207 216 34 19 44
30 42 46 -3 25 13 33 93 43 77 11 209 3 281 -16z m-571 -69 c-33 -29 -50 -51
-50 -67 0 -17 -5 -22 -20 -20 -44 6 -132 -189 -155 -343 -17 -111 4 -256 51
-348 11 -21 18 -44 16 -50 -5 -15 -41 67 -64 142 -12 39 -17 91 -17 171 0 128
17 205 65 306 16 34 29 65 29 68 0 17 76 107 126 149 70 59 88 52 19 -8z"/>
<path d="M2461 3139 c-65 -11 -66 -12 -66 -51 0 -28 -4 -32 -51 -47 -156 -51
-283 -197 -314 -360 -38 -201 30 -442 162 -572 215 -212 568 -193 810 42 99
97 135 178 144 324 10 181 -35 329 -139 457 -121 147 -361 238 -546 207z m198
-138 c83 -26 137 -60 198 -123 84 -90 124 -194 122 -318 l-2 -65 -7 86 c-15
160 -91 286 -221 366 -48 30 -141 53 -214 53 -70 0 -187 -30 -215 -55 -17 -16
-19 -16 -30 4 -12 23 -11 24 45 35 17 3 53 13 80 20 71 21 172 19 244 -3z m-5
-72 c16 -7 13 -8 -14 -4 -46 6 -88 8 -124 7 -28 -2 -28 -3 -13 -20 10 -10 17
-26 17 -34 0 -11 14 -17 53 -20 95 -8 182 -67 231 -159 38 -68 47 -172 22
-247 -39 -115 -171 -212 -289 -212 -53 0 -57 -1 -43 -16 9 -9 29 -20 44 -24
23 -7 24 -8 5 -9 -33 -1 -137 34 -188 63 -49 29 -99 98 -131 181 -29 76 -25
191 9 276 15 36 27 71 27 77 0 28 159 132 235 152 33 10 127 3 159 -11z m-441
-21 c8 -11 3 -25 -18 -52 -37 -48 -24 -46 21 4 32 35 64 52 64 34 0 -3 -23
-34 -52 -68 -97 -116 -127 -227 -94 -356 22 -84 57 -143 124 -207 103 -100
230 -139 358 -113 201 42 332 215 318 420 l-3 45 10 -40 c52 -200 -105 -414
-334 -456 -62 -12 -66 -14 -61 -36 7 -28 -2 -29 -99 -8 -212 45 -342 187 -377
413 -20 128 15 295 83 394 33 49 43 54 60 26z m497 2 c8 -5 11 -10 5 -10 -5 0
-17 5 -25 10 -8 5 -10 10 -5 10 6 0 17 -5 25 -10z m60 -36 c0 -2 -9 0 -20 6
-11 6 -20 13 -20 16 0 2 9 0 20 -6 11 -6 20 -13 20 -16z m55 -44 c21 -22 37
-40 34 -40 -3 0 -23 18 -44 40 -21 22 -37 40 -34 40 3 0 23 -18 44 -40z m244
-477 c-11 -27 -25 -52 -31 -58 -7 -7 -7 -4 0 10 5 11 17 37 25 58 9 20 18 37
21 37 3 0 -4 -21 -15 -47z m-48 -91 c-5 -10 -18 -25 -27 -33 -11 -9 -9 -2 6
19 26 35 36 42 21 14z m-51 -65 c0 -2 -10 -12 -22 -23 l-23 -19 19 23 c18 21
26 27 26 19z"/>
<path d="M2459 2831 c-200 -61 -271 -293 -140 -459 55 -70 123 -102 215 -102
208 0 344 217 253 402 -62 126 -206 195 -328 159z m194 -101 c111 -76 126
-222 31 -316 -68 -68 -146 -81 -233 -38 -71 36 -104 86 -109 168 -6 90 32 157
113 201 46 24 152 17 198 -15z"/>
<path d="M2267 2754 c-24 -50 -17 -52 11 -3 12 21 19 39 15 39 -4 0 -16 -17
-26 -36z"/>
<path d="M2324 2306 c22 -20 44 -36 50 -35 6 0 3 6 -8 12 -10 7 -33 23 -50 35
-20 16 -18 12 8 -12z"/>
<path d="M2400 2260 c8 -5 20 -10 25 -10 6 0 3 5 -5 10 -8 5 -19 10 -25 10 -5
0 -3 -5 5 -10z"/>
<path d="M2448 2243 c7 -3 16 -2 19 1 4 3 -2 6 -13 5 -11 0 -14 -3 -6 -6z"/>
<path d="M3736 3327 c-18 -13 -16 -18 27 -98 49 -91 139 -366 163 -497 28
-160 12 -409 -36 -563 -25 -80 -25 -81 2 -77 20 3 26 19 57 138 32 127 34 146
34 305 1 308 -62 582 -176 763 -29 45 -42 50 -71 29z"/>
<path d="M1018 3285 c-9 -17 -14 -42 -11 -57 3 -16 -15 -85 -45 -179 -78 -238
-96 -341 -96 -544 1 -227 31 -392 125 -683 49 -149 80 -214 162 -337 107 -159
171 -237 293 -354 65 -63 118 -119 116 -124 -5 -16 19 -37 42 -35 11 1 57 -19
102 -44 261 -146 492 -202 829 -202 444 -1 761 110 1106 388 128 102 242 223
355 373 47 61 100 121 118 133 37 22 69 65 63 83 -2 6 -12 -3 -22 -20 -10 -17
-36 -41 -57 -53 -21 -12 -57 -47 -81 -78 -278 -376 -647 -651 -1000 -746 -345
-94 -733 -84 -1046 26 -335 118 -577 320 -810 677 -90 138 -135 244 -199 466
-63 222 -85 382 -80 588 6 195 20 274 94 497 24 75 44 149 44 164 0 15 5 36
11 47 6 11 8 25 6 32 -2 7 -11 -2 -19 -18z"/>
<path d="M4551 3268 c-1 -4 13 -45 29 -90 38 -102 85 -276 104 -383 8 -44 15
-68 15 -52 2 44 -45 245 -84 363 -35 107 -63 176 -64 162z"/>
<path d="M3326 3208 c195 -216 291 -542 239 -815 -8 -43 -15 -85 -15 -93 1
-39 20 23 36 115 37 216 -13 454 -138 662 -36 60 -144 183 -160 183 -5 0 12
-24 38 -52z"/>
<path d="M4170 3245 c0 -5 5 -17 10 -25 5 -8 10 -10 10 -5 0 6 -5 17 -10 25
-5 8 -10 11 -10 5z"/>
<path d="M896 3080 c-21 -52 -56 -180 -55 -200 0 -8 13 28 29 80 15 52 33 108
39 124 6 16 10 31 8 33 -3 2 -12 -15 -21 -37z"/>
<path d="M4406 3094 c-8 -21 1 -34 24 -34 19 0 30 17 23 38 -7 17 -40 15 -47
-4z"/>
<path d="M681 3064 c0 -11 3 -14 6 -6 3 7 2 16 -1 19 -3 4 -6 -2 -5 -13z"/>
<path d="M671 3024 c0 -11 3 -14 6 -6 3 7 2 16 -1 19 -3 4 -6 -2 -5 -13z"/>
<path d="M4283 3004 c-14 -6 -17 -42 -7 -69 4 -8 20 -23 36 -31 16 -8 26 -19
23 -24 -4 -6 0 -10 8 -10 33 0 48 -329 23 -498 -21 -141 -64 -310 -111 -430
-39 -100 -39 -102 -26 -102 23 0 117 288 150 460 33 166 31 438 -3 569 -8 31
-19 74 -23 96 -7 33 -13 40 -33 42 -14 1 -31 -1 -37 -3z"/>
<path d="M662 2980 c0 -14 2 -19 5 -12 2 6 2 18 0 25 -3 6 -5 1 -5 -13z"/>
<path d="M4472 2960 c0 -14 2 -19 5 -12 2 6 2 18 0 25 -3 6 -5 1 -5 -13z"/>
<path d="M652 2930 c0 -14 2 -19 5 -12 2 6 2 18 0 25 -3 6 -5 1 -5 -13z"/>
<path d="M4482 2905 c0 -16 2 -22 5 -12 2 9 2 23 0 30 -3 6 -5 -1 -5 -18z"/>
<path d="M4254 2873 c30 -153 31 -398 2 -558 -32 -178 -114 -439 -181 -580
-47 -98 -113 -182 -151 -191 -13 -3 -48 -36 -78 -73 -293 -355 -670 -572
-1083 -622 -74 -9 -103 -16 -103 -26 0 -18 64 -17 176 2 359 62 667 226 938
499 233 235 304 341 391 581 98 271 142 511 131 715 -7 141 -26 280 -38 280
-5 0 -7 -12 -4 -27z"/>
<path d="M832 2840 c0 -14 2 -19 5 -12 2 6 2 18 0 25 -3 6 -5 1 -5 -13z"/>
<path d="M4493 2825 c0 -22 2 -30 4 -17 2 12 2 30 0 40 -3 9 -5 -1 -4 -23z"/>
<path d="M4502 2735 c0 -22 4 -67 8 -100 6 -55 7 -56 8 -15 0 25 -3 70 -8 100
-6 47 -7 49 -8 15z"/>
<path d="M4703 2665 c0 -27 2 -38 4 -22 2 15 2 37 0 50 -2 12 -4 0 -4 -28z"/>
<path d="M4714 2465 c0 -82 2 -115 3 -72 2 43 2 110 0 150 -1 40 -3 5 -3 -78z"/>
<path d="M4523 2510 c0 -25 2 -35 4 -22 2 12 2 32 0 45 -2 12 -4 2 -4 -23z"/>
<path d="M4508 2440 c-4 -14 -9 -36 -13 -50 -4 -16 0 -12 10 9 9 19 14 42 12
50 -2 10 -5 7 -9 -9z"/>
<path d="M3367 2443 c-13 -12 -7 -51 9 -57 14 -5 14 -7 0 -22 -9 -8 -16 -26
-16 -40 0 -19 5 -24 24 -24 19 0 25 6 28 30 3 16 0 34 -5 39 -5 5 -5 17 2 29
9 16 7 24 -5 36 -17 17 -27 20 -37 9z"/>
<path d="M4482 2330 c0 -14 2 -19 5 -12 2 6 2 18 0 25 -3 6 -5 1 -5 -13z"/>
<path d="M4703 2260 c0 -25 2 -35 4 -22 2 12 2 32 0 45 -2 12 -4 2 -4 -23z"/>
<path d="M4472 2270 c0 -14 2 -19 5 -12 2 6 2 18 0 25 -3 6 -5 1 -5 -13z"/>
<path d="M4461 2214 c0 -11 3 -14 6 -6 3 7 2 16 -1 19 -3 4 -6 -2 -5 -13z"/>
<path d="M4692 2170 c0 -19 2 -27 5 -17 2 9 2 25 0 35 -3 9 -5 1 -5 -18z"/>
<path d="M4442 2138 c-7 -28 -11 -53 -8 -55 2 -2 9 19 16 47 7 28 10 53 8 55
-3 3 -10 -18 -16 -47z"/>
<path d="M4681 2104 c0 -11 3 -14 6 -6 3 7 2 16 -1 19 -3 4 -6 -2 -5 -13z"/>
<path d="M1086 2038 c90 -308 311 -602 594 -791 64 -43 78 -45 89 -15 15 41
-8 75 -97 145 -236 184 -374 369 -458 613 l-32 95 -56 3 -55 3 15 -53z"/>
<path d="M3244 2049 c-15 -23 -69 -80 -119 -127 -65 -62 -77 -76 -43 -52 27
18 77 63 112 100 50 51 70 66 92 65 31 0 47 31 22 46 -24 15 -35 10 -64 -32z"/>
<path d="M4671 2054 c0 -11 3 -14 6 -6 3 7 2 16 -1 19 -3 4 -6 -2 -5 -13z"/>
<path d="M4402 2003 c-15 -48 -8 -55 8 -8 7 20 10 38 8 41 -3 2 -10 -13 -16
-33z"/>
<path d="M4661 2004 c0 -11 3 -14 6 -6 3 7 2 16 -1 19 -3 4 -6 -2 -5 -13z"/>
<path d="M3655 1914 c-37 -63 -26 -66 13 -4 17 27 27 50 23 50 -5 0 -21 -21
-36 -46z"/>
<path d="M803 1900 c-14 -6 -23 -18 -23 -31 0 -18 5 -21 31 -17 30 5 33 2 57
-51 71 -157 231 -409 346 -542 57 -68 190 -188 217 -197 5 -2 -38 43 -97 100
-157 153 -294 345 -418 587 -40 78 -52 111 -44 119 6 6 8 18 5 26 -7 17 -39
20 -74 6z"/>
<path d="M4356 1875 c-9 -26 -7 -32 5 -12 6 10 9 21 6 23 -2 3 -7 -2 -11 -11z"/>
<path d="M4336 1825 c-9 -26 -7 -32 5 -12 6 10 9 21 6 23 -2 3 -7 -2 -11 -11z"/>
<path d="M3817 1746 c-131 -197 -408 -427 -664 -553 -126 -61 -155 -85 -119
-99 21 -8 203 76 297 137 117 77 255 195 328 281 66 78 211 288 198 288 -2 0
-20 -24 -40 -54z"/>
<path d="M4210 1620 c-19 -16 -30 -30 -25 -30 6 0 26 13 45 30 19 16 31 29 25
29 -5 0 -26 -13 -45 -29z"/>
<path d="M1834 1278 c-10 -16 33 -47 139 -100 116 -58 253 -101 386 -123 84
-14 139 -17 275 -12 185 6 216 11 216 35 0 12 -10 14 -57 8 -342 -39 -601 8
-856 154 -48 27 -89 50 -92 50 -2 0 -7 -5 -11 -12z"/>
<path d="M1810 1090 c14 -11 79 -47 145 -80 170 -85 312 -121 500 -125 l140
-4 -116 9 c-139 9 -253 31 -371 70 -87 29 -230 96 -280 131 -35 25 -50 24 -18
-1z"/>
<path d="M4063 966 c-181 -165 -391 -311 -578 -401 -251 -120 -483 -179 -820
-208 -31 -3 -28 -4 17 -5 84 -3 289 26 415 59 281 72 522 191 778 384 95 71
310 264 295 264 -3 0 -51 -41 -107 -93z"/>
<path d="M1125 920 c10 -11 20 -20 23 -20 3 0 -3 9 -13 20 -10 11 -20 20 -23
20 -3 0 3 -9 13 -20z"/>
<path d="M1250 827 c120 -113 362 -259 558 -337 185 -73 496 -142 628 -139 32
1 9 6 -66 15 -205 24 -375 66 -560 138 -179 70 -415 210 -540 322 -78 69 -93
70 -20 1z"/>
<path d="M2413 783 c15 -2 37 -2 50 0 12 2 0 4 -28 4 -27 0 -38 -2 -22 -4z"/>
<path d="M2515 360 c-3 -5 -1 -10 4 -10 6 0 11 5 11 10 0 6 -2 10 -4 10 -3 0
-8 -4 -11 -10z"/>
</g>
</svg>